<?xml version="1.0" encoding="UTF-8"?>
<svg id="Layer_1" data-name="Layer 1" xmlns="http://www.w3.org/2000/svg" version="1.1" viewBox="0 0 300 300">
  <path d="M150,108.33c0,46.03,55.96,83.33,125,83.33V25c-69.04,0-125,37.31-125,83.33Z" fill="#000" stroke-width="0"/>
  <path d="M150,191.67c0-46.03-55.96-83.33-125-83.33v166.67c69.04,0,125-37.31,125-83.33Z" fill="#000" stroke-width="0"/>
  <path d="M150,25h-65c-33.14,0-60,26.86-60,60v23.33c69.04,0,125-37.31,125-83.33Z" fill="#000" stroke-width="0"/>
  <path d="M150,275h65c33.14,0,60-26.86,60-60v-23.33c-69.04,0-125,37.31-125,83.33Z" fill="#000" stroke-width="0"/>
</svg>
